<?xml version="1.0" encoding="utf-8"?>
<!-- Generator: Adobe Illustrator 15.0.0, SVG Export Plug-In . SVG Version: 6.00 Build 0)  -->
<!DOCTYPE svg PUBLIC "-//W3C//DTD SVG 1.1//EN" "http://www.w3.org/Graphics/SVG/1.1/DTD/svg11.dtd">
<svg version="1.1" xmlns="http://www.w3.org/2000/svg" xmlns:xlink="http://www.w3.org/1999/xlink" x="0px" y="0px"
	 width="502.515px" height="472.314px" viewBox="0 0 502.515 472.314" enable-background="new 0 0 502.515 472.314"
	 xml:space="preserve">
<g id="Layer_1">
	<g>
		<g>
			<path fill="#FFFFFF" d="M166.266,286.816c2.121,2.875,4.479,5.635,7.082,8.236c28.014,28.012,73.43,28.01,101.441-0.006
				c28.012-28.012,28.012-73.42,0-101.432c-18.66-18.66-45.031-24.871-68.844-18.674c-4.059-5.02-7.289-10.793-9.389-17.244
				c-1.738-5.359-2.562-10.795-2.629-16.174c9.791-3.455,18.98-9.092,26.811-16.922c28.014-28.01,28.021-73.428,0.008-101.438
				C192.74-4.842,147.318-4.842,119.307,23.17c-28.01,28.012-28.004,73.43,0,101.436c15.914,15.912,37.447,22.771,58.213,20.602
				c2.807,4.129,5.104,8.688,6.717,13.656c2.645,8.129,3.244,16.451,2.123,24.467c-4.623,2.861-8.994,6.275-13.006,10.285
				c-20.096,20.1-25.773,49.15-17.035,74.305c-3.49,6.557-8.303,12.475-14.475,17.285c-5.543,4.316-11.674,7.377-18.076,9.266
				c-0.441-0.461-0.869-0.934-1.324-1.391c-28.01-28.012-73.42-28.016-101.432-0.004c-28.01,28.02-28.02,73.43-0.006,101.445
				c28.004,28.002,73.428,28.002,101.438-0.014c22.928-22.926,27.072-57.506,12.471-84.66c3.223-5.033,7.277-9.602,12.223-13.463
				C152.984,291.83,159.486,288.67,166.266,286.816"/>
		</g>
		<g>
			<path fill="#333333" d="M166.266,284.656c2.121,2.875,4.479,5.635,7.082,8.236c28.014,28.012,73.43,28.01,101.441-0.006
				c28.012-28.012,28.012-73.42,0-101.432c-18.66-18.66-45.031-24.871-68.844-18.674c-4.059-5.02-7.289-10.793-9.389-17.244
				c-1.738-5.359-2.562-10.795-2.629-16.174c9.791-3.455,18.98-9.092,26.811-16.922c28.014-28.01,28.021-73.428,0.008-101.438
				C192.74-7.002,147.318-7.002,119.307,21.01c-28.01,28.012-28.004,73.43,0,101.436c15.914,15.912,37.447,22.771,58.213,20.602
				c2.807,4.129,5.104,8.688,6.717,13.656c2.645,8.129,3.244,16.451,2.123,24.467c-4.623,2.861-8.994,6.275-13.006,10.285
				c-20.096,20.1-25.773,49.15-17.035,74.305c-3.49,6.557-8.303,12.475-14.475,17.285c-5.543,4.316-11.674,7.377-18.076,9.266
				c-0.441-0.461-0.869-0.934-1.324-1.391c-28.01-28.012-73.42-28.016-101.432-0.004c-28.01,28.02-28.02,73.43-0.006,101.445
				c28.004,28.002,73.428,28.002,101.438-0.014c22.928-22.926,27.072-57.506,12.471-84.66c3.223-5.033,7.277-9.602,12.223-13.463
				C152.984,289.67,159.486,286.51,166.266,284.656"/>
		</g>
	</g>
	<g>
		<path fill="#FFFFFF" d="M223.683,263.639h-17.591v-10.006l16.643-50.559h11.376v50.559h5.267v10.006h-5.267v16.854h-10.428
			V263.639z M215.782,253.633h7.9v-24.227v-2.317h-0.632l-0.632,2.317L215.782,253.633z"/>
	</g>
	<g>
		<path fill="#FFFFFF" d="M186.188,92.802c0,3.687-0.948,16.748-14.852,16.748s-14.852-13.061-14.852-16.748V48.773
			c0-5.477,0.632-18.328,14.852-18.328s14.852,12.851,14.852,18.328v4.845h-11.376c0-10.428-0.21-13.271-3.476-13.271
			c-2.844,0-3.476,2.528-3.476,8.426v13.798c1.896-1.159,3.687-1.896,5.688-1.896c11.692,0,12.64,12.008,12.64,16.327V92.802z
			 M171.335,99.648c2.423,0,3.476-2.528,3.476-3.476V73c0-0.948-1.053-3.476-3.476-3.476c-2.422,0-3.371,2.106-3.476,3.16v23.489
			C167.86,97.121,168.702,99.648,171.335,99.648z"/>
	</g>
	<g>
		<g>
			<path fill="#FFFFFF" d="M171.394,400.476h10.555v71.833h-10.555V400.476z"/>
			<path fill="#FFFFFF" d="M200.909,434.877l-0.88-3.323h-0.587v3.323v37.432h-9.675v-71.833h9.382l10.262,37.431l0.88,3.323h0.586
				v-3.323v-37.431h9.676v71.833h-9.382L200.909,434.877z"/>
			<path fill="#FFFFFF" d="M224.658,411.323v-10.848h30.493v10.848h-9.969v60.985h-10.556v-60.985H224.658z"/>
			<path fill="#FFFFFF" d="M259.256,400.476h24.14v10.848h-13.584v18.862h9.772v11.533h-9.772v19.741h13.584v10.849h-24.14V400.476z
				"/>
			<path fill="#FFFFFF" d="M308.122,472.309l-5.473-30.297h-2.834v30.297H289.26v-71.833h10.556c12.51,0,17.982,7.231,17.982,20.719
				c0,7.135-1.857,13.585-5.864,16.321l6.744,34.793H308.122z M299.815,410.933v21.306c2.932,0,7.818-0.391,7.818-10.653
				C307.634,411.323,302.747,410.933,299.815,410.933z"/>
			<path fill="#FFFFFF" d="M321.61,472.309l10.848-71.833h12.901l10.848,71.833h-10.262l-1.954-14.66h-10.164l-1.955,14.66H321.61z
				 M339.495,423.833l-0.293-1.856h-0.587l-0.293,1.856l-3.029,22.674h7.232L339.495,423.833z"/>
			<path fill="#FFFFFF" d="M388.558,447.68v9.871c0,0,0.098,15.54-14.073,15.54c-14.172,0-14.073-15.54-14.073-15.54v-42.318
				c0,0-0.099-15.539,14.073-15.539c14.171,0,14.073,15.539,14.073,15.539v9.871h-9.871v-9.871c0,0,0.392-5.277-4.007-5.277
				c-3.714,0-3.714,5.277-3.714,5.277v42.318c0,0,0,5.277,3.714,5.277c4.398,0,4.007-5.277,4.007-5.277v-9.871H388.558z"/>
			<path fill="#FFFFFF" d="M391.197,411.323v-10.848h30.493v10.848h-9.969v60.985h-10.556v-60.985H391.197z"/>
			<path fill="#FFFFFF" d="M425.795,400.476h10.556v71.833h-10.556V400.476z"/>
			<path fill="#FFFFFF" d="M463.323,400.476h10.263l-10.946,71.833h-10.556l-10.945-71.833H451.4l5.277,39.483l0.391,3.03h0.587
				l0.391-3.03L463.323,400.476z"/>
			<path fill="#FFFFFF" d="M478.375,400.476h24.14v10.848h-13.584v18.862h9.772v11.533h-9.772v19.741h13.584v10.849h-24.14V400.476z
				"/>
		</g>
		<g>
			<g>
				<path fill="#333333" d="M171.394,398.315h10.555v71.833h-10.555V398.315z"/>
				<path fill="#333333" d="M200.909,432.717l-0.88-3.323h-0.587v3.323v37.432h-9.675v-71.833h9.382l10.262,37.431l0.88,3.323h0.586
					v-3.323v-37.431h9.676v71.833h-9.382L200.909,432.717z"/>
				<path fill="#333333" d="M224.658,409.163v-10.848h30.493v10.848h-9.969v60.985h-10.556v-60.985H224.658z"/>
				<path fill="#333333" d="M259.256,398.315h24.14v10.848h-13.584v18.862h9.772v11.533h-9.772V459.3h13.584v10.849h-24.14V398.315z
					"/>
				<path fill="#333333" d="M308.122,470.148l-5.473-30.297h-2.834v30.297H289.26v-71.833h10.556
					c12.51,0,17.982,7.231,17.982,20.719c0,7.135-1.857,13.585-5.864,16.321l6.744,34.793H308.122z M299.815,408.772v21.306
					c2.932,0,7.818-0.391,7.818-10.653C307.634,409.163,302.747,408.772,299.815,408.772z"/>
				<path fill="#333333" d="M321.61,470.148l10.848-71.833h12.901l10.848,71.833h-10.262l-1.954-14.66h-10.164l-1.955,14.66H321.61z
					 M339.495,421.673l-0.293-1.856h-0.587l-0.293,1.856l-3.029,22.674h7.232L339.495,421.673z"/>
				<path fill="#333333" d="M388.558,445.52v9.871c0,0,0.098,15.54-14.073,15.54c-14.172,0-14.073-15.54-14.073-15.54v-42.318
					c0,0-0.099-15.539,14.073-15.539c14.171,0,14.073,15.539,14.073,15.539v9.871h-9.871v-9.871c0,0,0.392-5.277-4.007-5.277
					c-3.714,0-3.714,5.277-3.714,5.277v42.318c0,0,0,5.277,3.714,5.277c4.398,0,4.007-5.277,4.007-5.277v-9.871H388.558z"/>
				<path fill="#333333" d="M391.197,409.163v-10.848h30.493v10.848h-9.969v60.985h-10.556v-60.985H391.197z"/>
				<path fill="#333333" d="M425.795,398.315h10.556v71.833h-10.556V398.315z"/>
				<path fill="#333333" d="M463.323,398.315h10.263l-10.946,71.833h-10.556l-10.945-71.833H451.4l5.277,39.483l0.391,3.03h0.587
					l0.391-3.03L463.323,398.315z"/>
				<path fill="#333333" d="M478.375,398.315h24.14v10.848h-13.584v18.862h9.772v11.533h-9.772V459.3h13.584v10.849h-24.14V398.315z
					"/>
			</g>
		</g>
	</g>
	<g>
		<g>
			<path fill="#FFFFFF" d="M178.24,337.633c8.042-0.186,9.341,6.989,9.341,12.062l-6.557,0.618c0-3.031-0.433-6.557-2.66-6.557
				c-1.732,0.062-2.289,1.917-2.289,4.516c0,3.093,2.66,6.557,5.258,10.33c3.093,4.64,6.248,9.155,6.248,14.042
				c0,6.062-1.98,11.444-9.279,11.444c-8.598,0-9.712-6.495-9.712-13.238l6.557-0.618c0,3.773,0.371,7.732,3.155,7.732
				c1.979,0,2.722-2.165,2.722-5.011c0-3.031-2.846-6.681-5.382-10.517c-3.155-4.639-6.124-9.278-6.124-14.165
				C169.518,343.323,171.931,337.756,178.24,337.633z"/>
			<path fill="#FFFFFF" d="M191.166,338.127h6.681v45.467h-6.681V338.127z"/>
			<path fill="#FFFFFF" d="M207.371,383.594h-6.557l7.361-23.878l-7.238-21.589h6.558l3.649,11.506l0.186,0.557h0.248l0.186-0.557
				l3.649-11.506h6.557l-7.237,21.589l7.361,23.878h-6.557l-3.836-13.547l-0.123-0.557h-0.248l-0.123,0.557L207.371,383.594z"/>
			<path fill="#FFFFFF" d="M222.71,344.994v-6.867h19.3v6.867h-6.31v38.6h-6.681v-38.6H222.71z"/>
			<path fill="#FFFFFF" d="M252.462,352.664l0.186,0.434h0.124l0.186-0.434l3.341-14.537h6.557l-6.805,26.104v19.362h-6.681v-19.362
				l-6.805-26.104h6.558L252.462,352.664z"/>
		</g>
		<g>
			<g>
				<path fill="#333333" d="M178.24,335.473c8.042-0.186,9.341,6.989,9.341,12.062l-6.557,0.618c0-3.031-0.433-6.557-2.66-6.557
					c-1.732,0.062-2.289,1.917-2.289,4.516c0,3.093,2.66,6.557,5.258,10.33c3.093,4.64,6.248,9.155,6.248,14.042
					c0,6.062-1.98,11.444-9.279,11.444c-8.598,0-9.712-6.495-9.712-13.238l6.557-0.618c0,3.773,0.371,7.732,3.155,7.732
					c1.979,0,2.722-2.165,2.722-5.011c0-3.031-2.846-6.681-5.382-10.517c-3.155-4.639-6.124-9.278-6.124-14.165
					C169.518,341.163,171.931,335.596,178.24,335.473z"/>
				<path fill="#333333" d="M191.166,335.967h6.681v45.467h-6.681V335.967z"/>
				<path fill="#333333" d="M207.371,381.434h-6.557l7.361-23.878l-7.238-21.589h6.558l3.649,11.506l0.186,0.557h0.248l0.186-0.557
					l3.649-11.506h6.557l-7.237,21.589l7.361,23.878h-6.557l-3.836-13.547l-0.123-0.557h-0.248l-0.123,0.557L207.371,381.434z"/>
				<path fill="#333333" d="M222.71,342.834v-6.867h19.3v6.867h-6.31v38.6h-6.681v-38.6H222.71z"/>
				<path fill="#333333" d="M252.462,350.504l0.186,0.434h0.124l0.186-0.434l3.341-14.537h6.557l-6.805,26.104v19.362h-6.681
					v-19.362l-6.805-26.104h6.558L252.462,350.504z"/>
			</g>
		</g>
	</g>
	<g>
		<g>
			<path fill="#FFFFFF" d="M277.898,359.473c3.108,0,5.613,2.505,5.613,5.613c0,3.2-2.505,5.705-5.613,5.705
				c-3.2,0-5.705-2.505-5.705-5.705C272.193,361.978,274.698,359.473,277.898,359.473z"/>
		</g>
		<g>
			<g>
				<path fill="#333333" d="M277.898,357.312c3.108,0,5.613,2.505,5.613,5.613c0,3.2-2.505,5.705-5.613,5.705
					c-3.2,0-5.705-2.505-5.705-5.705C272.193,359.817,274.698,357.312,277.898,357.312z"/>
			</g>
		</g>
	</g>
	<g>
		<g>
			<path fill="#FFFFFF" d="M313.265,344.994h-9.217v11.938h6.186v6.866h-6.186v19.795h-6.681v-45.467c0,0,0.681,0,15.897,0V344.994z
				"/>
			<path fill="#FFFFFF" d="M324.46,384.089c-8.97,0-8.908-9.836-8.908-9.836v-26.785c0,0-0.062-9.835,8.908-9.835
				s8.907,9.835,8.907,9.835v26.785C333.367,374.253,333.43,384.089,324.46,384.089z M324.46,344.128
				c-2.351,0-2.228,3.34-2.228,3.34v26.785c0,0-0.123,3.341,2.228,3.341s2.227-3.341,2.227-3.341v-26.785
				C326.687,347.468,326.811,344.128,324.46,344.128z"/>
			<path fill="#FFFFFF" d="M355.634,338.127v36.126c0,0,0.062,9.836-8.907,9.836s-8.908-9.836-8.908-9.836v-36.126h6.682v36.126
				c0,0-0.124,3.341,2.227,3.341s2.227-3.341,2.227-3.341v-36.126H355.634z"/>
			<path fill="#FFFFFF" d="M372.458,383.594l-3.464-19.177H367.2v19.177h-6.681v-45.467h6.681c7.918,0,11.382,4.578,11.382,13.114
				c0,4.516-1.175,8.599-3.711,10.331l4.268,22.021H372.458z M367.2,344.746v13.485c1.855,0,4.948-0.247,4.948-6.742
				S369.056,344.746,367.2,344.746z"/>
		</g>
		<g>
			<g>
				<path fill="#333333" d="M313.265,342.834h-9.217v11.938h6.186v6.866h-6.186v19.795h-6.681v-45.467c0,0,0.681,0,15.897,0V342.834
					z"/>
				<path fill="#333333" d="M324.46,381.929c-8.97,0-8.908-9.836-8.908-9.836v-26.785c0,0-0.062-9.835,8.908-9.835
					s8.907,9.835,8.907,9.835v26.785C333.367,372.093,333.43,381.929,324.46,381.929z M324.46,341.968
					c-2.351,0-2.228,3.34-2.228,3.34v26.785c0,0-0.123,3.341,2.228,3.341s2.227-3.341,2.227-3.341v-26.785
					C326.687,345.308,326.811,341.968,324.46,341.968z"/>
				<path fill="#333333" d="M355.634,335.967v36.126c0,0,0.062,9.836-8.907,9.836s-8.908-9.836-8.908-9.836v-36.126h6.682v36.126
					c0,0-0.124,3.341,2.227,3.341s2.227-3.341,2.227-3.341v-36.126H355.634z"/>
				<path fill="#333333" d="M372.458,381.434l-3.464-19.177H367.2v19.177h-6.681v-45.467h6.681c7.918,0,11.382,4.578,11.382,13.114
					c0,4.516-1.175,8.599-3.711,10.331l4.268,22.021H372.458z M367.2,342.586v13.485c1.855,0,4.948-0.247,4.948-6.742
					S369.056,342.586,367.2,342.586z"/>
			</g>
		</g>
	</g>
	<g>
		<path fill="#FFFFFF" d="M66.622,304.591H77.26v10.639H66.622V304.591z M66.622,382.01v-57.616H77.26v57.616H66.622z"/>
	</g>
</g>
<g id="Layer_2">
</g>
</svg>
